<?xml version="1.0" encoding="utf-8"?>
<!-- Generator: Adobe Illustrator 16.0.0, SVG Export Plug-In . SVG Version: 6.00 Build 0)  -->
<!DOCTYPE svg PUBLIC "-//W3C//DTD SVG 1.1//EN" "http://www.w3.org/Graphics/SVG/1.1/DTD/svg11.dtd">
<svg version="1.1" id="Layer_1" xmlns="http://www.w3.org/2000/svg" xmlns:xlink="http://www.w3.org/1999/xlink" x="0px" y="0px"
	 width="613.808px" height="269.357px" viewBox="0 0 613.808 269.357" enable-background="new 0 0 613.808 269.357"
	 xml:space="preserve">
<g>
	<path fill-rule="evenodd" clip-rule="evenodd" d="M613.061,258.168c-0.383-0.771-0.938-1.483-1.576-2.07
		c-0.66-0.576-1.432-1.05-2.258-1.35c-0.812-0.298-1.699-0.442-2.574-0.412c-0.887,0.021-1.762,0.206-2.555,0.546
		c-0.814,0.34-1.535,0.855-2.164,1.474c-0.639,0.598-1.133,1.37-1.482,2.122c-0.342,0.804-0.549,1.639-0.598,2.556
		c-0.021,0.875,0.102,1.709,0.359,2.514c0.279,0.783,0.701,1.545,1.215,2.194c0.559,0.659,1.207,1.216,1.947,1.628
		c0.723,0.441,1.535,0.701,2.371,0.845c1.67,0.258,3.441-0.113,4.863-1.02c0.699-0.464,1.338-1.052,1.842-1.742
		c0.506-0.68,0.896-1.462,1.104-2.256c0.227-0.793,0.299-1.638,0.227-2.513C613.699,259.776,613.451,258.932,613.061,258.168
		L613.061,258.168z M612.34,263.639c-0.289,0.712-0.752,1.402-1.33,1.928c-0.566,0.566-1.246,0.988-1.967,1.297
		c-0.732,0.269-1.525,0.424-2.309,0.413c-0.793-0.021-1.576-0.175-2.297-0.505c-0.721-0.31-1.391-0.773-1.916-1.339
		c-0.566-0.557-1.01-1.247-1.299-1.958c-0.268-0.711-0.412-1.473-0.412-2.298c0.021-0.731,0.145-1.422,0.381-2.05
		c0.248-0.649,0.619-1.277,1.082-1.813c0.455-0.514,1.01-0.958,1.607-1.309c1.227-0.69,2.678-0.927,4.09-0.659
		c0.67,0.135,1.33,0.392,1.947,0.752c0.588,0.351,1.123,0.813,1.576,1.361c0.443,0.545,0.773,1.174,1.01,1.833
		c0.227,0.639,0.318,1.329,0.318,2.06C612.812,262.177,612.637,262.939,612.34,263.639L612.34,263.639z"/>
	<path fill-rule="evenodd" clip-rule="evenodd" d="M609.146,261.578c0.215-0.144,0.4-0.34,0.566-0.545
		c0.186-0.227,0.287-0.464,0.359-0.742c0.217-0.805,0.043-1.597-0.607-2.235c-0.186-0.176-0.412-0.33-0.648-0.453
		c-0.248-0.113-0.506-0.165-0.795-0.175h-4.006v7.932l1.039,0.031v-3.461l2.164-0.021l1.771,3.482h1.186l-1.783-3.491
		C608.66,261.837,608.92,261.723,609.146,261.578L609.146,261.578z M605.035,260.95v-2.544h2.895
		c0.268,0.03,0.535,0.123,0.814,0.442c0.381,0.484,0.494,1.03-0.021,1.7c-0.236,0.279-0.525,0.382-0.814,0.412L605.035,260.95
		L605.035,260.95z"/>
	<path fill-rule="evenodd" clip-rule="evenodd" d="M3.87,109.959c1.38,4.383,3.142,8.582,5.264,12.584
		c2.122,4.003,4.595,7.805,7.438,11.431c3.328,4.225,6.938,8.148,10.839,11.766c3.889,3.646,8.066,6.964,12.517,10.003
		c2.431,1.628,4.94,3.07,7.562,4.307c2.618,1.257,5.326,2.287,8.134,3.122c3.874,1.164,7.773,2.08,11.719,2.802
		c6.836,1.206,13.888,1.906,20.888,1.598c2.968-0.145,5.923-0.423,8.881-0.866c3.127-0.504,6.212-1.134,9.252-1.947
		c3.055-0.793,6.058-1.762,9.014-2.895c3.205-1.206,6.331-2.575,9.392-4.11c3.049-1.546,6.011-3.235,8.896-5.09
		c2.761-1.772,5.414-3.698,7.958-5.749c2.529-2.06,4.971-4.255,7.284-6.589c2.185,0.99,4.363,1.959,6.532,2.5
		c4.336,1.05,8.679,1.895,13.042,2.102c5.96,0.247,12.034-0.969,18.081-3.374c2.102-0.819,4.162-2.211,6.243-3.715l-0.092-22.006
		c-1.793,1.674-3.585,3.168-5.389,4.214c-2.462,1.433-4.935,2.652-7.448,3.683c-2.797,1.19-5.641,1.376-8.515,1.423
		c-1.458,0.004-2.921-0.083-4.384-0.273c-1.297-0.17-2.56-0.428-3.812-0.768c-1.236-0.36-2.462-0.804-3.647-1.329l40.344-33.833
		l0.165,53.139l21.243,0.124l-0.288-47.37c-0.217-1.776-0.155-3.554,0.175-5.326c0.134-0.727,0.319-1.437,0.587-2.107
		c0.278-0.685,0.607-1.334,1-1.962c0.648-1.081,1.432-2.086,2.276-3.003c0.845-0.922,1.793-1.763,2.802-2.529
		c0.875-0.645,1.792-1.18,2.771-1.623c2.195-0.999,4.77-1.392,7.191-1.345c1.391,0.026,2.761,0.206,4.131,0.541
		c1.361,0.34,2.669,0.814,3.884,1.422c1.227,0.619,2.37,1.354,3.472,2.235c0.804,0.681,1.525,1.407,2.154,2.226
		c0.628,0.804,1.174,1.695,1.618,2.643c0.504,1.071,0.896,2.175,1.174,3.312c0.278,1.128,0.464,2.276,0.516,3.467l-0.176,49.225
		l20.214-0.046l0.402-52.691c-0.021-1.828-0.227-3.616-0.598-5.374c-0.392-1.745-0.948-3.456-1.669-5.125l10.632,0.067
		l-0.083,63.509l21.46,0.01l0.195-63.122l6.007-0.01l0.051,29.242c-0.104,2.813,0.104,5.616,0.639,8.413
		c0.258,1.298,0.588,2.564,0.988,3.816c0.424,1.247,0.897,2.467,1.475,3.667c0.731,1.551,1.555,3.04,2.473,4.473
		c0.917,1.426,1.895,2.802,2.987,4.125c0.928,1.087,1.885,2.097,2.925,3.029c1.031,0.928,2.164,1.782,3.339,2.545
		c1.392,0.906,2.834,1.694,4.316,2.379c5.079,2.273,10.509,3.199,15.826,3.282c2.234,0.021,4.43-0.237,6.635-0.804
		c1.4-0.35,2.76-0.793,4.098-1.278c1.34-0.498,2.648-1.061,3.928-1.693c1.535-0.721,3.08-1.896,4.553-3.236
		c0.588-0.523,1.135-1.065,1.701-1.632v6.846l20.932,0.211l0.084-84.165l-23.334-0.093l0.236,46.535
		c-0.01,3.267-0.359,6.511-1.02,9.742c-0.547,1.215-1.154,2.39-1.855,3.492c-0.721,1.112-1.514,2.173-2.398,3.179
		c-0.641,0.741-1.361,1.39-2.123,1.962c-0.773,0.566-1.607,1.056-2.514,1.464c-2.07,0.937-4.193,1.354-6.338,1.364
		c-2.275-0.016-4.512-0.454-6.715-1.396c-0.836-0.361-1.619-0.805-2.371-1.314c-0.752-0.515-1.432-1.106-2.082-1.777
		c-0.865-0.927-1.678-1.9-2.41-2.937c-0.731-1.039-1.4-2.121-1.979-3.249c-1.399-2.751-1.668-5.601-1.585-8.438l0.062-48.864
		l-27.549-0.164l0.031-25.448l-21.243-0.267l0.051,25.452l-11.117-0.155l-0.061,14.943l-1.824-0.052
		c-0.886-1.194-1.751-2.332-2.844-3.534c-0.186-0.195-0.391-0.379-0.598-0.561c-1.473-1.267-2.977-2.467-4.522-3.611
		c-1.556-1.137-3.163-2.215-4.812-3.229c-1-0.618-2.03-1.175-3.081-1.644c-3.235-1.458-6.646-2.221-10.014-2.313
		c-4.08-0.113-8.169,0.474-12.291,1.777c-1.401,0.448-2.802,0.964-4.152,1.576c-1.267,0.566-2.483,1.2-3.657,1.901
		c-1.185,0.705-2.338,1.482-3.431,2.333l-0.01-7.428l-20.873-0.093l-0.207,10.88c-0.926-0.769-1.875-1.51-2.854-2.215
		c-1.617-1.145-3.266-2.299-4.924-3.117c-0.628-0.324-1.298-0.614-1.999-0.861c-2.463-0.932-4.945-1.719-7.49-2.379
		c-2.535-0.67-5.105-1.205-7.707-1.597c-3.75-0.577-7.49-0.608-11.25-0.088c-2.462,0.34-4.873,0.851-7.242,1.535
		c-2.365,0.686-4.678,1.54-6.95,2.565c-2.055,0.933-4.023,2.023-5.887,3.265c-1.87,1.233-3.637,2.623-5.301,4.152
		c-1.711,1.566-3.261,3.246-4.683,5.044c-1.407,1.788-2.679,3.688-3.802,5.713c-1.112,1.978-2.044,4.028-2.796,6.13
		c-1.53,4.224-2.38,8.798-2.478,13.253c-0.052,2.262,0.077,4.514,0.391,6.779c0.331,2.256,0.82,4.472,1.484,6.625
		c0.675,2.163,1.514,4.255,2.523,6.305c-0.793,0.917-1.617,1.813-2.446,2.685c-1.324,1.359-2.695,2.766-4.039,3.816
		c-0.505,0.402-1.03,0.773-1.571,1.128c-2.602,1.689-5.27,3.271-8.016,4.719c-2.735,1.447-5.542,2.776-8.412,3.982
		c-1.891,0.783-3.812,1.437-5.78,1.956c-4.45,1.195-9.174,1.634-13.784,1.566c-2.597-0.031-5.188-0.258-7.784-0.659
		c-2.74-0.428-5.439-1.025-8.087-1.798c-2.632-0.777-5.228-1.716-7.773-2.833c-2.406-1.066-4.729-2.271-6.954-3.621
		c-2.241-1.351-4.389-2.844-6.444-4.486c-1.721-1.371-3.302-2.854-4.76-4.462c-1.458-1.581-2.797-3.296-4.007-5.125
		c-1.809-2.751-3.39-5.609-4.74-8.582c-2.503-5.553-4.357-11.59-4.847-17.524c-0.248-2.792-0.237-5.608,0.021-8.454
		c0.366-3.795,1.066-7.509,2.086-11.126c1.02-3.616,2.375-7.134,4.059-10.559c1.695-3.416,3.663-6.626,5.903-9.644
		c2.241-3.014,4.765-5.811,7.547-8.407c1.87-1.73,3.858-3.26,5.97-4.605c2.107-1.34,4.337-2.488,6.69-3.441
		c2.911-1.17,5.863-2.123,8.881-2.844c5.836-1.406,12.012-2.019,18.076-1.669c2.951,0.17,5.898,0.557,8.818,1.16
		c3.225,0.669,6.372,1.54,9.458,2.611c3.08,1.088,6.088,2.375,9.025,3.858c1.056,0.536,2.061,1.139,3.029,1.804
		c0.968,0.659,1.885,1.386,2.766,2.188c1.354,1.227,2.653,2.499,3.889,3.833c1.242,1.334,2.422,2.719,3.549,4.151l33.23-0.211
		c-1.262-2.952-2.674-5.805-4.24-8.592c-1.55-2.777-3.255-5.477-5.115-8.088c-1.474-2.071-3.075-4.029-4.791-5.877
		c-1.726-1.838-3.575-3.564-5.553-5.171c-3.652-2.988-7.458-5.693-11.441-8.135c-3.982-2.446-8.139-4.62-12.44-6.516
		c-3.708-1.643-7.5-2.973-11.353-3.998c-3.873-1.03-7.819-1.741-11.853-2.163c-9.339-0.948-18.663-0.453-27.945,1.54
		c-4.673,1.01-9.201,2.365-13.595,4.049c-4.394,1.7-8.659,3.729-12.79,6.115c-3.878,2.241-7.536,4.744-10.977,7.521
		c-3.451,2.782-6.681,5.836-9.689,9.148c-2.751,3.044-5.213,6.269-7.387,9.685c-2.179,3.404-4.049,7.021-5.635,10.792
		C5.158,54.274,3.54,59.322,2.35,64.489C1.17,69.646,0.434,74.905,0.125,80.252c-0.273,5.068-0.098,10.07,0.53,15.016
		C1.274,100.233,2.35,105.122,3.87,109.959L3.87,109.959z M144.008,96.658c0.19-1.102,0.479-2.169,0.86-3.22
		c0.371-1.035,0.845-2.04,1.412-3.013c0.685-1.175,1.442-2.293,2.287-3.349c0.835-1.046,1.757-2.039,2.746-2.967
		c0.953-0.886,1.962-1.699,3.024-2.437c1.051-0.736,2.168-1.386,3.338-1.962c1.097-0.547,2.225-0.99,3.374-1.355
		c3.369-1.057,6.99-1.345,10.499-0.763c1.189,0.206,2.349,0.484,3.482,0.855c1.123,0.37,2.25,0.824,3.327,1.365l-32.24,27.939
		c-0.495-0.906-0.917-1.834-1.257-2.813C143.915,102.304,143.513,99.425,144.008,96.658L144.008,96.658z"/>
	<path fill-rule="evenodd" clip-rule="evenodd" d="M415.861,87.737c0.713-1.557,1.639-2.922,2.762-4.106
		c1.104-1.189,2.482-2.245,3.914-3.014c1.453-0.772,2.988-1.298,4.689-1.597l0.07,55.324l-22.758,33.699h24.676l78.08-109.891
		l-25.602-0.14l-32.76,43.451l-0.154-43.637l-20.287,0.223c-2.389,0.278-4.666,0.875-6.797,1.803
		c-2.135,0.927-4.123,2.164-5.977,3.739l0.029-5.084l-20.729-0.17l-0.371,84.067l21.071,0.211L415.861,87.737L415.861,87.737z"/>
	<path fill-rule="evenodd" clip-rule="evenodd" d="M545.385,132.964c-0.381-0.474-3.02-3.028-4.637-4.409
		c-1.648-1.38-3.348-2.669-5.141-3.853c-1.771-1.17-3.596-2.231-5.461-3.194c-1.896-0.947-3.812-1.793-5.801-2.533
		c-2.193-0.799-4.42-1.485-6.664-2.025c-2.256-0.552-4.533-0.964-6.852-1.247c-2.039-0.241-4.08-0.355-6.119-0.34
		c-4.873,0.052-9.799,0.957-14.486,2.262c-2.73,0.777-5.43,1.741-8.076,2.879c-2.082,0.917-4.08,1.989-5.955,3.209
		c-1.885,1.227-3.678,2.607-5.338,4.152c-1.318,1.23-2.523,2.54-3.604,3.94c-1.072,1.417-2.041,2.916-2.887,4.502
		c-0.998,1.561-1.904,3.157-2.75,4.807c-0.814,1.638-1.576,3.339-2.246,5.048c-0.711,2.112-1.309,4.255-1.822,6.43
		c-0.496,2.153-0.887,4.347-1.176,6.562c-0.133,1.504-0.217,3.009-0.238,4.513c-0.041,1.504-0.02,3.02,0.062,4.502l25.705-0.175
		c-0.463-3.884,0-7.954,1.516-11.642c0.473-1.195,1.07-2.349,1.75-3.472c0.742-1.195,1.557-2.317,2.473-3.339
		c0.906-1.05,1.916-2.009,3.008-2.884c1.062-0.866,2.186-1.606,3.381-2.257c1.162-0.67,2.4-1.216,3.697-1.669
		c1.453-0.5,2.926-0.859,4.43-1.102c2.762-0.433,5.678-0.484,8.273,0.128c1.217,0.288,2.391,0.7,3.555,1.241
		c1.576,0.742,3.049,1.659,4.408,2.68c1.361,1.051,2.617,2.246,3.762,3.574c1.123,1.31,2.092,2.709,2.873,4.214
		c0.795,1.493,1.424,3.061,1.906,4.729c0.773,3.173,0.865,6.326,0.26,9.499c-0.332,1.277-0.754,2.514-1.227,3.739
		c-0.506,1.206-1.072,2.381-1.701,3.555c-0.371,0.772-0.752,1.545-1.186,2.287c-0.43,0.752-0.926,1.464-1.463,2.153
		c-0.648,0.824-1.359,1.638-2.07,2.411c-0.762,0.783-1.535,1.524-2.359,2.215l-58.65,57.374l0.154,26.147l98.613,0.278l-0.195-27.61
		l-56.879-0.176l42.992-43.208c0.834-0.969,1.648-1.946,2.41-2.967c0.773-1.021,1.504-2.05,2.215-3.111
		c1.207-1.834,2.236-3.729,3.082-5.604c3.193-7.172,5.16-14.331,5.17-21.42c-0.07-3.894-0.742-7.756-1.574-11.62
		c-0.609-2.771-1.66-5.553-2.896-8.335C551.627,143.802,548.547,137.409,545.385,132.964z"/>
	<polygon fill-rule="evenodd" clip-rule="evenodd" fill="#FFDD00" points="298.343,171.001 156.742,217.495 156.706,234.722 
		298.394,188.174 441.588,233.772 441.588,216.558 298.343,171.001 	"/>
	<polygon fill-rule="evenodd" clip-rule="evenodd" fill="#FFDD00" points="373.447,269.12 391.517,269.089 391.517,233.865 
		373.509,228.261 373.447,269.12 	"/>
	<rect x="3.329" y="250.122" fill-rule="evenodd" clip-rule="evenodd" fill="#FFDD00" width="295.724" height="19.235"/>
	<polygon fill-rule="evenodd" clip-rule="evenodd" points="551.061,115.229 551.061,139.959 562.217,139.959 562.217,267.514 
		592.25,267.514 592.25,115.229 	"/>
</g>
</svg>
