<?xml version="1.0" encoding="utf-8"?>
<!-- Generator: Adobe Illustrator 16.0.0, SVG Export Plug-In . SVG Version: 6.00 Build 0)  -->
<!DOCTYPE svg PUBLIC "-//W3C//DTD SVG 1.1//EN" "http://www.w3.org/Graphics/SVG/1.1/DTD/svg11.dtd">
<svg version="1.1" id="Layer_1" xmlns="http://www.w3.org/2000/svg" xmlns:xlink="http://www.w3.org/1999/xlink" x="0px" y="0px"
	 width="598.06px" height="404.141px" viewBox="0 0 598.06 404.141" enable-background="new 0 0 598.06 404.141"
	 xml:space="preserve">
<g>
	<g>
		<linearGradient id="SVGID_1_" gradientUnits="userSpaceOnUse" x1="419.2378" y1="156.7983" x2="419.2378" y2="0">
			<stop  offset="0.0175" style="stop-color:#85C5E2"/>
			<stop  offset="1" style="stop-color:#AED8EC"/>
		</linearGradient>
		<path fill="url(#SVGID_1_)" d="M566.873,63.318h-23.849l21.417,19.712h-39.842c-9.947-32.643-46.418-46.433-69.331-40.788
			c-7.718-19.167-30.863-25.953-47.462-20.34C397.986,9.274,376.668,0,357.67,0c-27.392,0-52.74,16.258-63.728,41.039
			c-30.861,3.974-51.224,26.09-51.224,52.398c0,29.842,26.396,54.123,60.439,54.123c7.823,0,17.41-1.716,23.985-5.249
			c14.265,9.353,34.609,14.487,54.766,14.487c20.931,0,42.005-5.452,57.691-14.997c15.673,10.684,37.547,7.299,50.139-6.9
			c6.857-7.732,9.87-17.664,9.87-28.009c0-20.179-16.027-36.252-35.794-36.252c-11.568,0-20.97,4.034-28.354,10.478l11.062,15.738
			c3.149-2.995,8.57-6.604,16.298-6.604c7.555,0,16.508,4.646,16.916,16.932c0.358,10.911-9.184,19.421-17.947,19.421
			c-8.763,0-15.811-3.394-20.949-9.833c-15.037,13.094-39.632,18.589-58.931,18.589c-26.477,0-44.017-9.434-52.795-15.889
			c-6.713,4.218-17.883,6.653-25.956,6.653c-22.217,0-39.004-14.664-39.004-32.687c0-16.98,17.164-33.229,44.022-32.998
			c6.108-22.674,26.448-39.042,49.493-39.003c23.244,0.042,34.596,11.842,43.414,24.372c5.552-6.173,19.853-8.968,29.945-2.86
			c8.509,5.158,12.462,13.179,12.274,23.053c8.92-4.387,30.586-7.086,44.886,3.378c14.303,10.469,18.114,20.993,19.681,35.088
			h56.473l-21.246,19.545h23.852l28.808-30.313L566.873,63.318L566.873,63.318z"/>
		<linearGradient id="SVGID_2_" gradientUnits="userSpaceOnUse" x1="246.4863" y1="374.3013" x2="246.4863" y2="195.5044">
			<stop  offset="0" style="stop-color:#BC202E"/>
			<stop  offset="1" style="stop-color:#EE4237"/>
		</linearGradient>
		<path fill="url(#SVGID_2_)" d="M434.452,195.504c-40.163,0-58.506,19.975-58.506,49.343c0,7.025,1.695,15.182,3.838,20.479
			c-2.96,2.634-7.429,5.966-14.31,9.932v-77.899H331.96l0.468,7.538c-6.468-5.582-15.169-9.393-28.256-9.393
			c-14.49,0-26.009,3.593-34.536,9.893c-12.329,2.072-28.898,3.527-45.392,0.834c-9.533-6.842-22.986-10.727-40.676-10.727
			c-40.176,0-58.516,19.975-58.516,49.343c0,7.272,1.129,13.966,3.436,19.921c-2.936,2.707-7.562,6.237-14.945,10.49v-77.899H80.069
			l0.434,7.538c-5.519-5.582-15.556-9.393-28.262-9.393C17.878,195.504,0,215.479,0,244.847c0,29.375,17.878,49.345,52.241,49.345
			c6.592,0,16.223-1.316,23.685-4.695v4.251c-2.997,1.106-6.019,2.074-12.966,3.676C46.43,301.242,9.65,306.6,9.65,338.486
			c0,22.33,21.543,35.815,47.594,35.815c26.039,0,56.299-15.037,56.299-64.85v-4.658c11.049-5.282,22.695-12.017,31.507-19.95
			c9.367,5.961,22.087,9.349,38.519,9.349c40.168,0,58.516-19.97,58.516-49.345c0-3.938-0.344-7.713-1.018-11.294
			c3.785,0.205,7.752,0.166,11.882-0.139c-0.663,3.623-1.021,7.437-1.021,11.433c0,29.375,17.873,49.345,52.244,49.345
			c6.459,0,19.509-2.812,23.683-4.695v4.251c-2.312,1.147-6.538,2.211-12.971,3.676c-16.536,3.796-53.311,9.177-53.311,41.062
			c0,22.33,21.55,35.815,47.589,35.815c26.047,0,56.312-15.037,56.312-64.85v-4.658c10.874-5.195,22.304-11.812,31.071-19.579
			c9.301,5.721,21.833,8.978,37.906,8.978c40.181,0,58.521-19.97,58.521-49.345C492.972,213.336,474.018,195.504,434.452,195.504z
			 M57.507,346.467c-9.833,1.055-14.622-2.662-14.622-8.775c0-11.429,12.725-14.17,25.707-17.046
			c2.328-0.516,4.693-1.055,7.039-1.618C73.986,339.671,65.777,345.571,57.507,346.467z M75.925,260.592
			c-3.938,3.287-9.518,5.406-16.944,5.406c-15.559,0-21.367-9.167-21.367-21.151c0-11.979,5.809-21.146,21.367-21.146
			c7.427,0,13.007,1.876,16.944,5.176V260.592z M183.569,265.999c-15.562,0-20.898-9.167-20.898-21.151
			c0-11.753,5.336-21.146,20.898-21.146c15.551,0,20.895,9.393,20.895,21.146C204.463,256.832,199.12,265.999,183.569,265.999z
			 M309.425,346.467c-9.824,1.055-14.616-2.662-14.616-8.775c0-11.429,12.726-14.17,25.707-17.046
			c2.323-0.516,4.693-1.055,7.047-1.618C325.915,339.671,317.699,345.571,309.425,346.467z M327.855,260.592
			c-3.952,3.287-9.517,5.406-16.95,5.406c-15.563,0-21.362-9.167-21.362-21.151c0-11.979,5.799-21.146,21.362-21.146
			c7.434,0,12.998,1.876,16.95,5.176V260.592z M434.452,265.999c-15.547,0-20.896-9.167-20.896-21.151
			c0-11.753,5.349-21.146,20.896-21.146c15.569,0,20.909,9.393,20.909,21.146C455.361,256.832,450.021,265.999,434.452,265.999z"/>
		<polygon fill="#95D1EC" points="410.789,362.057 410.789,335.301 415.814,335.301 415.814,362.057 410.789,362.057 		"/>
		<polygon fill="#95D1EC" points="447.958,362.057 430.557,344.138 428.874,342.251 428.874,362.057 423.849,362.057 
			423.849,335.301 428.667,335.301 445.546,353.173 447.275,355.11 447.275,335.301 452.292,335.301 452.292,362.057 
			447.958,362.057 		"/>
		<path fill="#95D1EC" d="M498.75,362.057l-3.541-6.625h-15.7l-3.421,6.625h-5.303l14.464-26.756h4.181l14.703,26.756H498.75
			L498.75,362.057z M487.218,340.522l-5.826,11.248h11.853L487.218,340.522L487.218,340.522z"/>
		<polygon fill="#95D1EC" points="508.878,362.057 508.878,335.301 513.902,335.301 513.902,362.057 508.878,362.057 		"/>
		<path fill="#95D1EC" d="M545.002,362.057c-1.366,0-1.971-1.892-2.135-4.302l-0.149-2.728c-0.168-2.652-1.256-3.777-6.273-3.777
			h-9.483v10.807h-5.019v-26.756h14.579c8.035,0,11.654,3.214,11.654,7.353c0,2.928-1.491,5.7-6.714,6.667
			c5.223,0.399,6.351,2.771,6.39,5.903l0.039,2.209c0.042,1.853,0.363,3.176,1.651,4.504v0.12H545.002L545.002,362.057z
			 M543.111,343.297c0-1.931-1.567-3.818-5.86-3.818h-10.289v8.032h10.729c3.695,0,5.42-1.765,5.42-3.893V343.297L543.111,343.297z"
			/>
		<polygon fill="#95D1EC" points="555.249,362.057 555.249,357.52 559.911,357.52 559.911,362.057 555.249,362.057 		"/>
		<path fill="#95D1EC" d="M423.186,404.141c-9.479,0-15.629-6.827-15.629-13.939v-0.885c0-7.231,6.149-13.944,15.629-13.944
			c9.527,0,15.674,6.713,15.674,13.944v0.885C438.86,397.314,432.713,404.141,423.186,404.141L423.186,404.141z M433.793,389.395
			c0-5.18-3.776-9.803-10.607-9.803c-6.825,0-10.564,4.623-10.564,9.803v0.644c0,5.181,3.739,9.89,10.564,9.89
			c6.831,0,10.607-4.709,10.607-9.89V389.395L433.793,389.395z"/>
		<polygon fill="#95D1EC" points="469.396,403.096 452.003,385.172 450.314,383.293 450.314,403.096 445.295,403.096 
			445.295,376.338 450.115,376.338 466.99,394.214 468.721,396.149 468.721,376.338 473.74,376.338 473.74,403.096 469.396,403.096 
					"/>
		<polygon fill="#95D1EC" points="481.776,403.096 481.776,376.338 486.804,376.338 486.804,398.915 507.735,398.915 
			507.735,403.096 481.776,403.096 		"/>
		<polygon fill="#95D1EC" points="513.365,403.096 513.365,376.338 518.385,376.338 518.385,403.096 513.365,403.096 		"/>
		<polygon fill="#95D1EC" points="550.528,403.096 533.134,385.172 531.443,383.293 531.443,403.096 526.419,403.096 
			526.419,376.338 531.248,376.338 548.115,394.214 549.844,396.149 549.844,376.338 554.862,376.338 554.862,403.096 
			550.528,403.096 		"/>
		<polygon fill="#95D1EC" points="562.909,403.096 562.909,376.338 587.216,376.338 587.216,380.516 567.927,380.516 
			567.927,387.387 582.753,387.387 582.753,391.45 567.927,391.45 567.927,398.915 587.216,398.915 587.216,403.096 
			562.909,403.096 		"/>
		<linearGradient id="SVGID_3_" gradientUnits="userSpaceOnUse" x1="500.5552" y1="213.6177" x2="500.5552" y2="199.7114">
			<stop  offset="0" style="stop-color:#BC202E"/>
			<stop  offset="1" style="stop-color:#EE4237"/>
		</linearGradient>
		<path fill="url(#SVGID_3_)" d="M507.521,206.655c0-3.828-3.119-6.943-6.965-6.943s-6.966,3.115-6.966,6.943
			c0,3.849,3.12,6.963,6.966,6.963S507.521,210.503,507.521,206.655L507.521,206.655z M506.132,206.655
			c0,3.135-2.498,5.674-5.576,5.674c-3.08,0-5.581-2.539-5.581-5.674c0-3.115,2.501-5.658,5.581-5.658
			C503.634,200.997,506.132,203.54,506.132,206.655L506.132,206.655z M502.442,207.485c0.957-0.35,1.595-1.238,1.595-2.33
			c0-1.52-1.019-2.5-2.636-2.5h-3.674v7.658h1.443v-2.661h1.868l1.381,2.676h1.655L502.442,207.485L502.442,207.485z
			 M499.17,206.333v-2.352h2.246c0.738,0,1.2,0.307,1.2,1.174c0,0.865-0.598,1.178-1.2,1.178
			C501.417,206.333,499.98,206.333,499.17,206.333L499.17,206.333z"/>
	</g>
	<polygon fill="#95D1EC" points="593.394,403.096 593.394,398.554 598.06,398.554 598.06,403.096 593.394,403.096 	"/>
</g>
</svg>
