<?xml version="1.0" encoding="utf-8"?>
<!-- Generator: Adobe Illustrator 16.0.0, SVG Export Plug-In . SVG Version: 6.00 Build 0)  -->
<!DOCTYPE svg PUBLIC "-//W3C//DTD SVG 1.1//EN" "http://www.w3.org/Graphics/SVG/1.1/DTD/svg11.dtd">
<svg version="1.1" id="Layer_1" xmlns="http://www.w3.org/2000/svg" xmlns:xlink="http://www.w3.org/1999/xlink" x="0px" y="0px"
	 width="450.339px" height="379.469px" viewBox="0 0 450.339 379.469" enable-background="new 0 0 450.339 379.469"
	 xml:space="preserve">
<g>
	<rect fill="#FF7300" width="450.339" height="379.469"/>
	<path fill="#FFFFFF" d="M38.383,189.406h9.793l15.577,20.015v-20.015h10.388v37.865h-9.199l-16.171-20.771v20.771H38.383V189.406z"
		/>
	<path fill="#FFFFFF" d="M80.135,208.446v-0.105c0-10.875,8.763-19.696,20.451-19.696c11.683,0,20.338,8.715,20.338,19.584v0.111
		c0,10.874-8.766,19.69-20.449,19.69C88.792,228.031,80.135,219.32,80.135,208.446z M110.213,208.446v-0.105
		c0-5.464-3.949-10.225-9.738-10.225c-5.733,0-9.577,4.652-9.577,10.113v0.111c0,5.463,3.952,10.224,9.688,10.224
		C106.372,218.564,110.213,213.915,110.213,208.446z"/>
	<path fill="#FFFFFF" d="M121.473,189.406h11.738l8.602,23.965l8.6-23.965h11.521l-15.363,38.136h-9.738L121.473,189.406z"/>
	<path fill="#FFFFFF" d="M173.841,189.136h10.113l16.124,38.134h-11.254l-2.758-6.761h-14.607l-2.703,6.761h-11.038L173.841,189.136
		z M183.035,212.343l-4.217-10.766l-4.277,10.766H183.035z"/>
	<path fill="#FFFFFF" d="M208.688,198.603H197.33v-9.197h33.217v9.197h-11.365v28.668h-10.494V198.603z"/>
	<path fill="#FFFFFF" d="M236.049,189.406h10.549v37.865h-10.549V189.406z"/>
	<path fill="#FFFFFF" d="M253.044,208.446v-0.105c0-10.875,8.763-19.696,20.451-19.696c11.683,0,20.338,8.715,20.338,19.584v0.111
		c0,10.874-8.761,19.69-20.448,19.69C261.696,228.031,253.044,219.32,253.044,208.446z M283.122,208.446v-0.105
		c0-5.464-3.949-10.225-9.737-10.225c-5.733,0-9.578,4.652-9.578,10.113v0.111c0,5.463,3.95,10.224,9.688,10.224
		C279.283,218.564,283.122,213.915,283.122,208.446z"/>
	<path fill="#FFFFFF" d="M300.115,189.406h9.793l15.577,20.015v-20.015h10.384v37.865h-9.194l-16.177-20.771v20.771h-10.383V189.406
		z"/>
	<path fill="#FFFFFF" d="M35.517,278.46l5.844-6.978c3.733,2.978,7.899,4.544,12.277,4.544c2.816,0,4.33-0.973,4.33-2.595v-0.11
		c0-1.566-1.247-2.434-6.385-3.627C43.524,267.86,37.3,265.588,37.3,257.8v-0.111c0-7.032,5.572-12.121,14.663-12.121
		c6.436,0,11.469,1.733,15.58,5.033l-5.25,7.41c-3.461-2.433-7.247-3.732-10.6-3.732c-2.544,0-3.789,1.088-3.789,2.438v0.105
		c0,1.728,1.3,2.488,6.544,3.678c8.71,1.895,14.121,4.705,14.121,11.794v0.105c0,7.738-6.113,12.338-15.31,12.338
		C46.552,284.737,40.172,282.626,35.517,278.46z"/>
	<path fill="#FFFFFF" d="M75.023,246.218h30.457v8.927H85.409v5.738h18.174v8.272H85.409v6.005h20.34v8.927H75.023V246.218z"/>
	<path fill="#FFFFFF" d="M121.79,255.366h-11.36v-9.199h30.398v9.199h-8.544v28.671H121.79V255.366z"/>
	<path fill="#FFFFFF" d="M154.325,255.366h-8.544v-9.199h30.398v9.199h-11.36v28.671h-10.494V255.366z"/>
	<path fill="#FFFFFF" d="M181.045,246.167h10.494v28.671h17.794v9.199h-28.288V246.167z"/>
	<path fill="#FFFFFF" d="M214.562,246.218h30.457v8.927h-20.071v5.738h18.179v8.272h-18.179v6.005h20.34v8.927h-30.726V246.218z"/>
	<path fill="#FFFFFF" d="M252.437,246.218h11.089l9.037,14.665l9.033-14.665h11.088v37.869h-10.438v-21.748l-9.684,14.826h-0.217
		l-9.632-14.716v21.638h-10.277V246.218z"/>
	<path fill="#FFFFFF" d="M300.659,246.218h30.454v8.927h-20.066v5.738h18.177v8.272h-18.177v6.005h20.338v8.927h-30.726V246.218z"/>
	<path fill="#FFFFFF" d="M338.533,246.218h9.794l15.577,20.016v-20.016h10.389v37.869h-9.195l-16.176-20.771v20.771h-10.389V246.218
		z"/>
	<path fill="#FFFFFF" d="M390.605,255.417h-11.361v-9.199h33.221v9.199h-11.361v28.67h-10.498V255.417z"/>
	<path fill="#FFFFFF" d="M35.517,335.211l5.844-6.978c3.733,2.973,7.899,4.545,12.277,4.545c2.816,0,4.33-0.973,4.33-2.6v-0.106
		c0-1.571-1.247-2.433-6.385-3.622c-8.058-1.844-14.282-4.115-14.282-11.904v-0.105c0-7.033,5.572-12.121,14.663-12.121
		c6.436,0,11.469,1.732,15.58,5.032l-5.25,7.411c-3.461-2.434-7.247-3.733-10.6-3.733c-2.544,0-3.789,1.083-3.789,2.434v0.11
		c0,1.729,1.3,2.489,6.544,3.678c8.71,1.895,14.121,4.706,14.121,11.794v0.11c0,7.733-6.113,12.333-15.31,12.333
		C46.552,341.488,40.172,339.378,35.517,335.211z"/>
	<path fill="#FFFFFF" d="M72.9,322.012v-0.11c0-10.872,8.763-19.688,20.451-19.688c11.683,0,20.338,8.711,20.338,19.583v0.105
		c0,10.877-8.764,19.692-20.449,19.692C81.558,341.594,72.9,332.884,72.9,322.012z M102.979,322.012v-0.11
		c0-5.461-3.949-10.222-9.738-10.222c-5.733,0-9.575,4.649-9.575,10.116v0.105c0,5.466,3.95,10.227,9.686,10.227
		C99.135,332.128,102.979,327.473,102.979,322.012z"/>
	<path fill="#FFFFFF" d="M118.873,302.969h10.494v28.671h17.791v9.199h-28.285V302.969z"/>
	<path fill="#FFFFFF" d="M151.176,324.229v-21.26h10.655v21.043c0,5.467,2.758,8.061,6.98,8.061c4.219,0,6.975-2.483,6.975-7.788
		v-21.315h10.655v20.988c0,12.227-6.975,17.582-17.738,17.582C157.937,341.539,151.176,336.078,151.176,324.229z"/>
	<path fill="#FFFFFF" d="M202.733,312.168h-11.358v-9.199h33.217v9.199h-11.366v28.671h-10.494V312.168z"/>
	<path fill="#FFFFFF" d="M230.094,302.969h10.549v37.87h-10.549V302.969z"/>
	<path fill="#FFFFFF" d="M246.119,322.012v-0.11c0-10.872,8.766-19.688,20.449-19.688c11.688,0,20.342,8.711,20.342,19.583v0.105
		c0,10.877-8.76,19.692-20.448,19.692C254.779,341.594,246.119,332.884,246.119,322.012z M276.2,322.012v-0.11
		c0-5.461-3.95-10.222-9.738-10.222c-5.737,0-9.577,4.649-9.577,10.116v0.105c0,5.466,3.95,10.227,9.684,10.227
		C272.356,332.128,276.2,327.473,276.2,322.012z"/>
	<path fill="#FFFFFF" d="M292.645,302.969h9.793l15.577,20.016v-20.016h10.388v37.87h-9.199l-16.171-20.776v20.776h-10.388V302.969z
		"/>
	<path fill="#FFFFFF" d="M333.884,335.211l5.839-6.978c3.738,2.973,7.899,4.545,12.282,4.545c2.812,0,4.327-0.973,4.327-2.6v-0.106
		c0-1.571-1.244-2.433-6.383-3.622c-8.061-1.844-14.282-4.115-14.282-11.904v-0.105c0-7.033,5.572-12.121,14.66-12.121
		c6.438,0,11.466,1.732,15.582,5.032l-5.249,7.411c-3.461-2.434-7.25-3.733-10.605-3.733c-2.539,0-3.783,1.083-3.783,2.434v0.11
		c0,1.729,1.301,2.489,6.545,3.678c8.71,1.895,14.121,4.706,14.121,11.794v0.11c0,7.733-6.116,12.333-15.311,12.333
		C344.916,341.488,338.533,339.378,333.884,335.211z"/>
</g>
</svg>
