<?xml version="1.0" encoding="utf-8"?>
<!-- Generator: Adobe Illustrator 16.0.0, SVG Export Plug-In . SVG Version: 6.00 Build 0)  -->
<!DOCTYPE svg PUBLIC "-//W3C//DTD SVG 1.1//EN" "http://www.w3.org/Graphics/SVG/1.1/DTD/svg11.dtd">
<svg version="1.1" id="Layer_1" xmlns="http://www.w3.org/2000/svg" xmlns:xlink="http://www.w3.org/1999/xlink" x="0px" y="0px"
	 width="333.937px" height="256.333px" viewBox="0 0 333.937 256.333" enable-background="new 0 0 333.937 256.333"
	 xml:space="preserve">
<g>
	<g>
		<path d="M0.258,249.499l7.35-0.645l1.418-1.677v-70.795H0v-6.189l23.856-7.608h6.706v8.64c11.864-6.963,16.506-8.769,22.566-8.769
			c14.185,0,25.017,13.411,25.017,31.077c0,20.633-14.83,34.431-36.751,34.431c-2.579,0-6.706-0.258-10.832-0.645v19.858
			l1.676,1.677l8.511,0.645l-0.258,6.834H0.258V249.499z M30.562,219.968c1.676,0.258,2.45,0.258,3.482,0.258
			c13.282,0,20.374-8.253,20.374-23.727c0-13.153-5.803-20.117-16.506-20.117c-1.805,0-3.61,0.129-7.35,0.645V219.968z"/>
		<path d="M107.068,162.842c1.031,4.643,1.547,8.124,1.676,10.961l1.418,31.465l18.827-35.591v-3.74l19.472-1.547l2.45,49.002
			l16.635-23.083l-3.611-23.727c3.482-3.095,5.932-4.127,9.929-4.127c6.318,0,10.574,3.998,10.574,10.059
			c0,6.318-3.481,13.798-12.122,25.79c-2.708,3.74-10.703,13.669-23.856,29.659h-15.216l-2.966-44.359l-24.114,44.359H89.789
			l1.29-5.803l-2.063-46.681l-12.767-2.063v-5.158l23.34-5.416H107.068z"/>
		<path d="M224.62,169.419c-10.961,1.676-16.635,9.8-16.635,23.855c0,14.186,7.608,23.599,18.956,23.599
			c5.416,0,10.316-1.677,20.375-6.576v11.477c-12.251,5.545-19.343,7.221-29.272,7.221c-10.703,0-18.183-2.837-24.372-9.026
			s-9.413-14.313-9.413-23.469c0-20.246,15.216-34.044,37.524-34.044c14.83,0,25.017,6.706,25.017,16.377
			c0,6.447-4.771,10.703-11.863,10.703c-3.61,0-6.576-0.902-10.316-3.095V169.419z"/>
	</g>
	<rect x="149.886" y="109.537" fill="#AC2323" width="63.084" height="16.638"/>
	<g>
		<rect x="212.97" fill="#EF9C41" width="61.697" height="13.178"/>
		<rect x="274.667" y="13.178" fill="#F1B785" width="11.441" height="19.058"/>
		<rect x="212.97" y="13.178" fill="#E4782A" width="61.697" height="19.058"/>
		<rect x="286.108" y="32.236" fill="#EFBA38" width="31.197" height="47.144"/>
		<rect x="274.667" y="32.236" fill="#E78D29" width="11.441" height="47.144"/>
		<polygon fill="#D96026" points="251.098,79.38 274.667,79.38 274.667,32.236 212.97,32.236 212.97,63.781 251.098,63.781 		"/>
		<rect x="317.306" y="79.38" fill="#E66EA7" width="16.631" height="30.157"/>
		<rect x="286.108" y="79.38" fill="#DE5928" width="31.197" height="30.157"/>
		<rect x="274.667" y="79.38" fill="#D34527" width="11.441" height="30.157"/>
		<rect x="251.098" y="79.38" fill="#C22F26" width="23.569" height="30.157"/>
		<rect x="212.97" y="63.781" fill="#C14D27" width="38.128" height="15.599"/>
		<rect x="212.97" y="79.38" fill="#AC2323" width="38.128" height="30.157"/>
	</g>
</g>
</svg>
