<?xml version="1.0" encoding="utf-8"?>
<!-- Generator: Adobe Illustrator 16.0.0, SVG Export Plug-In . SVG Version: 6.00 Build 0)  -->
<!DOCTYPE svg PUBLIC "-//W3C//DTD SVG 1.1//EN" "http://www.w3.org/Graphics/SVG/1.1/DTD/svg11.dtd">
<svg version="1.1" id="Layer_1" xmlns="http://www.w3.org/2000/svg" xmlns:xlink="http://www.w3.org/1999/xlink" x="0px" y="0px"
	 width="123.49px" height="133.287px" viewBox="0 0 123.49 133.287" enable-background="new 0 0 123.49 133.287"
	 xml:space="preserve">
<g>
	<polygon fill-rule="evenodd" clip-rule="evenodd" fill="#A1958B" points="12.131,2.458 24.738,2.458 40.342,39.635 58.947,0 
		77.712,39.635 93.637,2.48 106.21,2.458 77.553,67.432 59.003,26.488 40.151,67.305 12.131,2.458 	"/>
	<polygon fill-rule="evenodd" clip-rule="evenodd" fill="#A1958B" points="14.506,132.844 12.811,132.844 12.811,124.365 
		1.686,124.365 1.686,132.844 0,132.844 0,114.842 1.686,114.842 1.686,122.869 12.811,122.869 12.811,114.842 14.506,114.842 
		14.506,132.844 	"/>
	<path fill-rule="evenodd" clip-rule="evenodd" fill="#A1958B" d="M37.041,123.74c0,1.449-0.383,8.01-5.947,8.01
		c-4.597,0-5.924-4.576-5.924-7.908c0-3.432,1.404-7.957,6-7.957C35.74,115.885,37.067,120.486,37.041,123.74L37.041,123.74
		L37.041,123.74z M38.879,123.717c0.025-4.07-1.736-9.32-7.71-9.32c-5.36,0-7.794,4.463-7.794,9.42c0,3.178,0.986,5.543,2.254,7.018
		c1.48,1.762,3.319,2.453,5.54,2.453c1.481,0,3.651-0.281,5.412-2.35C38.037,129.234,38.853,126.461,38.879,123.717L38.879,123.717z
		"/>
	<polygon fill-rule="evenodd" clip-rule="evenodd" fill="#A1958B" points="53.372,132.844 51.676,132.844 51.676,116.338 
		46.009,116.338 46.009,114.842 59.066,114.842 59.066,116.338 53.372,116.338 53.372,132.844 	"/>
	<polygon fill-rule="evenodd" clip-rule="evenodd" fill="#A1958B" points="81.423,132.838 69.031,132.838 69.031,114.846 
		80.786,114.846 80.786,116.432 70.727,116.432 70.727,122.824 79.839,122.824 79.839,124.412 70.727,124.412 70.727,131.252 
		81.423,131.252 81.423,132.838 	"/>
	<polygon fill-rule="evenodd" clip-rule="evenodd" fill="#A1958B" points="103.886,132.838 92.193,132.838 92.193,114.842 
		93.93,114.842 93.93,131.252 103.886,131.252 103.886,132.838 	"/>
	<path fill-rule="evenodd" clip-rule="evenodd" fill="#A1958B" d="M121.549,119.199c-0.152-0.457-0.356-1.068-0.763-1.602
		c-0.89-1.248-2.342-1.809-3.892-1.809c-1.934,0-4.223,0.814-4.223,3.207c0,2.189,2.01,2.824,3.027,3.133
		c0.508,0.152,3.077,0.812,3.637,1.018c0.967,0.305,4.153,1.348,4.153,4.76c0,2.52-2.118,5.381-6.723,5.381
		c-1.908,0-3.28-0.488-4.221-1.102c-1.367-0.92-2.133-2.244-2.438-3.898l1.704-0.891c0.024,0.713,0.101,1.451,0.43,2.086
		c0.812,1.682,2.67,2.318,4.525,2.318c3.46,0,4.985-1.91,4.985-3.818c0-1.299-0.609-2.037-1.093-2.418
		c-0.814-0.688-1.857-0.943-4.223-1.555c-2.543-0.66-5.409-1.604-5.409-4.938c0-3.537,3.119-4.68,5.919-4.68
		c4.603,0,5.776,2.949,6.186,3.941L121.549,119.199L121.549,119.199z"/>
</g>
</svg>
